<?xml version="1.0" encoding="UTF-8" standalone="no" ?>
<!DOCTYPE svg PUBLIC "-//W3C//DTD SVG 1.1//EN" "http://www.w3.org/Graphics/SVG/1.1/DTD/svg11.dtd">
<svg xmlns="http://www.w3.org/2000/svg" xmlns:xlink="http://www.w3.org/1999/xlink" version="1.1" width="1080" height="1080" viewBox="0 0 1080 1080" xml:space="preserve">
<desc>Created with Fabric.js 5.2.4</desc>
<defs>
</defs>
<g transform="matrix(1 0 0 1 540 540)" id="c0d1c53d-6de7-4d46-b40f-950c3aee02c8"  >
<rect style="stroke: none; stroke-width: 1; stroke-dasharray: none; stroke-linecap: butt; stroke-dashoffset: 0; stroke-linejoin: miter; stroke-miterlimit: 4; fill: rgb(255,255,255); fill-rule: nonzero; opacity: 1; visibility: hidden;" vector-effect="non-scaling-stroke"  x="-540" y="-540" rx="0" ry="0" width="1080" height="1080" />
</g>
<g transform="matrix(1 0 0 1 540 540)" id="2c77e1f0-7e54-44de-8120-58dd48badd90"  >
</g>
<g transform="matrix(1 0 0 1 540.63 536.37)"  >
<rect style="stroke: none; stroke-width: 1; stroke-dasharray: none; stroke-linecap: butt; stroke-dashoffset: 0; stroke-linejoin: miter; stroke-miterlimit: 4; fill: rgb(255,255,255); fill-rule: nonzero; opacity: 1; visibility: hidden;" vector-effect="non-scaling-stroke"  x="-540" y="-540" rx="0" ry="0" width="1080" height="1080" />
</g>
<g transform="matrix(2.12 0 0 2.12 541.35 536.21)"  >
<path style="stroke: rgb(0,0,0); stroke-width: 0; stroke-dasharray: none; stroke-linecap: butt; stroke-dashoffset: 0; stroke-linejoin: miter; stroke-miterlimit: 4; fill: rgb(0,0,0); fill-rule: nonzero; opacity: 1;" vector-effect="non-scaling-stroke"  transform=" translate(27.35, -240.71)" d="M 0 0 C 10.23906578 7.73254248 18.72711365 17.59665562 20.6875 30.6875 C 21.85513364 44.93959193 20.11663877 55.82922245 13.6875 68.6875 C 56.9175 111.9175 100.1475 155.1475 144.6875 199.6875 C 148.3175 198.0375 151.9475 196.3875 155.6875 194.6875 C 166.67740726 190.73257154 181.26114775 191.02491673 192.08203125 195.359375 C 204.81602996 201.85046879 214.47659056 211.58721657 219.5625 225.0625 C 222.6849279 236.87911337 222.25682987 251.76178523 216.6875 262.6875 C 209.9558096 274.20135661 200.90697381 282.80903017 188.3125 287.5625 C 172.98172437 291.57655166 158.55549293 288.62149647 144.6875 281.6875 C 101.4575 324.9175 58.2275 368.1475 13.6875 412.6875 C 15.3375 416.3175 16.9875 419.9475 18.6875 423.6875 C 22.64242846 434.67740726 22.35008327 449.26114775 18.015625 460.08203125 C 11.52453121 472.81602996 1.78778343 482.47659056 -11.6875 487.5625 C -23.50411337 490.6849279 -38.38678523 490.25682987 -49.3125 484.6875 C -61.30962364 477.67326273 -71.10998233 467.62448318 -74.73339844 453.87963867 C -75.49052575 449.70618183 -75.69010618 445.57564155 -75.88671875 441.34375 C -75.9290564 440.51004883 -75.97139404 439.67634766 -76.01501465 438.81738281 C -76.11819389 436.77428747 -76.21589872 434.73091692 -76.3125 432.6875 C -76.86545746 432.48943756 -77.41841492 432.29137512 -77.98812866 432.08731079 C -85.22146818 429.49630917 -92.45453457 426.90454573 -99.6875 424.3125 C -101.4519194 423.68022995 -101.4519194 423.68022995 -103.25198364 423.03518677 C -116.75601845 418.19562024 -130.25799174 413.35045751 -143.75390625 408.48828125 C -145.47105835 407.86968231 -145.47105835 407.86968231 -147.22290039 407.23858643 C -152.71265607 405.26063371 -158.20201612 403.28159037 -163.69091797 401.30126953 C -165.6780554 400.58494847 -167.66519709 399.86863922 -169.65234375 399.15234375 C -170.99420494 398.66765373 -170.99420494 398.66765373 -172.36317444 398.173172 C -176.66305532 396.62383359 -180.96778719 395.10799754 -185.3125 393.6875 C -185.64121094 394.1721875 -185.96992188 394.656875 -186.30859375 395.15625 C -194.17175679 406.23713016 -203.98996201 413.56567198 -217.3125 416.6875 C -232.05940021 418.14354747 -244.98784058 416.6529828 -257.06640625 407.53125 C -266.18249691 400.04812862 -273.5213794 390.64804087 -275.3125 378.6875 C -276.74178455 361.24170701 -274.13017553 348.33441225 -262.65625 334.72265625 C -254.65033375 326.09363803 -244.36421602 321.02024369 -232.65625 320.37109375 C -219.98959715 319.95151689 -210.70907748 321.98921126 -199.3125 327.6875 C -170.9325 299.3075 -142.5525 270.9275 -113.3125 241.6875 C -115.03148716 238.24952569 -116.12790221 236.62378556 -118.74197388 234.01751709 C -119.45151215 233.30522949 -120.16105042 232.59294189 -120.89208984 231.85906982 C -121.67036133 231.08798889 -122.44863281 230.31690796 -123.25048828 229.52246094 C -124.07008026 228.7025769 -124.88967224 227.88269287 -125.73410034 227.03796387 C -128.44562432 224.32783376 -131.16416492 221.62485752 -133.8828125 218.921875 C -135.7636917 217.04472571 -137.64417487 215.167188 -139.5241394 213.28912354 C -143.96832026 208.85115594 -148.41757422 204.41831075 -152.86867607 199.98728585 C -157.93665976 194.94166591 -162.99895771 189.89035784 -168.06078744 184.83856535 C -178.47171229 174.44853903 -188.88975506 164.06566928 -199.3125 153.6875 C -200.27671875 154.10902344 -201.2409375 154.53054687 -202.234375 154.96484375 C -203.51034676 155.51839032 -204.78639233 156.07176681 -206.0625 156.625 C -206.69671875 156.90279297 -207.3309375 157.18058594 -207.984375 157.46679688 C -218.84456003 162.16156436 -232.58830746 162.59198571 -243.9375 159.125 C -257.61921759 153.64459408 -267.0649853 143.59680687 -273.3515625 130.52734375 C -277.50511944 119.52235877 -276.97251326 104.10743628 -272.640625 93.29296875 C -266.14953121 80.55897004 -256.41278343 70.89840944 -242.9375 65.8125 C -231.12088663 62.6900721 -216.23821477 63.11817013 -205.3125 68.6875 C -196.81105396 73.6579547 -190.39888321 80.04162759 -184.3125 87.6875 C -183.74114822 87.4791301 -183.16979645 87.27076019 -182.58113098 87.05607605 C -147.19798696 74.15386166 -111.77841433 61.36056023 -76.3125 48.6875 C -76.25916504 47.46353516 -76.20583008 46.23957031 -76.15087891 44.97851562 C -76.07228078 43.35024394 -75.9933229 41.72198959 -75.9140625 40.09375 C -75.87998291 39.28969727 -75.84590332 38.48564453 -75.81079102 37.65722656 C -75.11230872 23.80046668 -69.29823903 12.79119051 -59.25 3.28125 C -42.59283172 -10.42061423 -18.05009418 -11.9794347 0 0 Z M -52.3125 20.6875 C -58.26934175 29.45976447 -59.12110965 37.15279681 -58.3125 47.6875 C -56.12872185 56.93424063 -51.15351899 63.11888233 -43.1875 68.0625 C -35.32708088 72.64162267 -26.26387226 73.09301976 -17.41796875 71.00390625 C -7.53444214 67.34502774 -1.9168373 61.05068257 2.6875 51.6875 C 5.46216577 43.5484804 4.55686703 33.54186893 0.9375 25.86328125 C -3.398493 18.31594344 -9.86752726 12.8846498 -18.203125 10.04296875 C -31.49468706 7.8030944 -43.27510706 10.40495515 -52.3125 20.6875 Z M -70.3125 64.6875 C -70.88385178 64.8958699 -71.45520355 65.10423981 -72.04386902 65.31892395 C -79.52845397 68.04812517 -87.01405792 70.77452367 -94.5 73.5 C -95.71713684 73.94324615 -96.93427368 74.38649231 -98.18829346 74.84317017 C -112.35642955 80.00113435 -126.53209823 85.13672637 -140.73046875 90.2109375 C -141.95519394 90.64881088 -143.17991913 91.08668427 -144.4417572 91.53782654 C -150.34788808 93.64848867 -156.25545366 95.755033 -162.16479492 97.85668945 C -164.2947816 98.61663619 -166.42474699 99.37664261 -168.5546875 100.13671875 C -169.53434982 100.48370819 -170.51401215 100.83069763 -171.52336121 101.1882019 C -172.85153618 101.66291428 -172.85153618 101.66291428 -174.20654297 102.1472168 C -175.36668411 102.55969917 -175.36668411 102.55969917 -176.55026245 102.98051453 C -178.30748282 103.55148965 -178.30748282 103.55148965 -179.3125 104.6875 C -179.38508946 106.87389453 -179.39623783 109.06250389 -179.375 111.25 C -179.36597656 112.44753906 -179.35695313 113.64507812 -179.34765625 114.87890625 C -179.33605469 115.80574219 -179.32445312 116.73257813 -179.3125 117.6875 C -169.07053766 120.56711109 -158.82813187 123.44513928 -148.58519936 126.32129765 C -143.82596045 127.65771559 -139.06686033 128.99462304 -134.30810547 130.33276367 C -113.33886253 136.22884367 -92.36889036 142.10864426 -71.3125 147.6875 C -70.79115479 146.92518066 -70.26980957 146.16286133 -69.73266602 145.37744141 C -61.37648612 133.27750842 -51.84983429 125.09398738 -37.3125 121.6875 C -22.69593638 120.24432142 -9.62362024 121.66195584 2.37109375 130.7109375 C 11.54453927 138.53853182 18.56990465 148.66617718 19.93798828 160.93359375 C 20.10308252 163.33066359 20.21963619 165.72408358 20.3125 168.125 C 20.35117187 168.95193359 20.38984375 169.77886719 20.4296875 170.63085938 C 20.52303092 172.64941073 20.60630961 174.66842331 20.6875 176.6875 C 28.59678316 180.06579437 36.55742525 183.16466948 44.66796875 186.0234375 C 45.78440262 186.4201767 46.90083649 186.81691589 48.05110168 187.22567749 C 50.43081451 188.0711688 52.8110087 188.91530635 55.19165039 189.75817871 C 61.43635267 191.9695078 67.67726054 194.19149318 73.91796875 196.4140625 C 74.85517069 196.74768295 74.85517069 196.74768295 75.811306 197.08804321 C 88.12716332 201.47319281 100.41459459 205.93369432 112.6875 210.4375 C 113.56997406 210.76127625 114.45244812 211.08505249 115.36166382 211.41864014 C 120.13809826 213.17179595 124.91339154 214.92802049 129.6875 216.6875 C 130.6775 215.6975 131.6675 214.7075 132.6875 213.6875 C 127.04571271 206.80121554 120.73688389 200.60329866 114.43994141 194.32641602 C 113.19747792 193.08423494 111.95523527 191.84183295 110.7131958 190.59922791 C 107.35638899 187.24213525 103.99651711 183.88812569 100.63607073 180.53467679 C 97.1188958 177.02377084 93.60456956 173.51001576 90.0899353 169.99656677 C 83.44102129 163.35075564 76.78956319 156.70749684 70.13717878 150.06515974 C 62.56083824 142.50001276 54.98735118 134.93201189 47.41409802 127.36377442 C 31.84172993 111.80184709 16.26579634 96.2434927 0.6875 80.6875 C -0.27671875 81.10902344 -1.2409375 81.53054687 -2.234375 81.96484375 C -3.51034676 82.51839032 -4.78639233 83.07176681 -6.0625 83.625 C -7.01382813 84.04168945 -7.01382813 84.04168945 -7.984375 84.46679688 C -18.84456003 89.16156436 -32.58830746 89.59198571 -43.9375 86.125 C -52.85654137 82.53225939 -59.49210487 77.02208458 -65.62109375 69.703125 C -67.11133646 67.92722376 -68.66324576 66.31278504 -70.3125 64.6875 Z M -252.3125 92.6875 C -258.26934175 101.45976447 -259.12110965 109.15279681 -258.3125 119.6875 C -256.12872185 128.93424063 -251.15351899 135.11888233 -243.1875 140.0625 C -235.32708088 144.64162267 -226.26387226 145.09301976 -217.41796875 143.00390625 C -207.53444214 139.34502774 -201.9168373 133.05068257 -197.3125 123.6875 C -194.53783423 115.5484804 -195.44313297 105.54186893 -199.0625 97.86328125 C -203.398493 90.31594344 -209.86752726 84.8846498 -218.203125 82.04296875 C -231.49468706 79.8030944 -243.27510706 82.40495515 -252.3125 92.6875 Z M -183.3125 133.6875 C -184.6325 135.9975 -185.9525 138.3075 -187.3125 140.6875 C -158.6025 169.3975 -129.8925 198.1075 -100.3125 227.6875 C -97.07862666 226.07056333 -95.59247412 225.21554407 -93.19628906 222.79833984 C -92.61598938 222.2178891 -92.0356897 221.63743835 -91.43780518 221.03939819 C -90.82411072 220.41538116 -90.21041626 219.79136414 -89.578125 219.1484375 C -88.94009949 218.50758209 -88.30207397 217.86672668 -87.64471436 217.20645142 C -85.61255931 215.16312179 -83.58747782 213.11294018 -81.5625 211.0625 C -80.1840547 209.6740214 -78.80515364 208.2859951 -77.42578125 206.8984375 C -74.04938106 203.50001303 -70.67930712 200.09542746 -67.3125 196.6875 C -67.73402344 195.72328125 -68.15554687 194.7590625 -68.58984375 193.765625 C -69.14339032 192.48965324 -69.69676681 191.21360767 -70.25 189.9375 C -70.52779297 189.30328125 -70.80558594 188.6690625 -71.09179688 188.015625 C -73.61544019 182.17779949 -74.5099849 177.26841757 -74.875 170.9375 C -74.93977539 169.89142578 -74.93977539 169.89142578 -75.00585938 168.82421875 C -75.11139596 167.11218078 -75.2123991 165.39986439 -75.3125 163.6875 C -85.55446234 160.80788891 -95.79686813 157.92986072 -106.03980064 155.05370235 C -110.79903955 153.71728441 -115.55813967 152.38037696 -120.31689453 151.04223633 C -141.28613747 145.14615633 -162.25610964 139.26635574 -183.3125 133.6875 Z M -52.3125 148.6875 C -58.26934175 157.45976447 -59.12110965 165.15279681 -58.3125 175.6875 C -56.12872185 184.93424063 -51.15351899 191.11888233 -43.1875 196.0625 C -35.32708088 200.64162267 -26.26387226 201.09301976 -17.41796875 199.00390625 C -7.53444214 195.34502774 -1.9168373 189.05068257 2.6875 179.6875 C 5.46216577 171.5484804 4.55686703 161.54186893 0.9375 153.86328125 C -3.398493 146.31594344 -9.86752726 140.8846498 -18.203125 138.04296875 C -31.49468706 135.8030944 -43.27510706 138.40495515 -52.3125 148.6875 Z M 14.6875 192.6875 C 14.275 193.25597656 13.8625 193.82445312 13.4375 194.41015625 C 5.27108866 205.3290857 -3.83603687 212.5198365 -17.3125 215.6875 C -31.42020425 217.20232703 -42.63471814 215.02639093 -55.3125 208.6875 C -65.5425 218.9175 -75.7725 229.1475 -86.3125 239.6875 C -84.69556333 242.92137334 -83.84054407 244.40752588 -81.42333984 246.80371094 C -80.55266373 247.67416046 -80.55266373 247.67416046 -79.66439819 248.56219482 C -78.72837265 249.48273651 -78.72837265 249.48273651 -77.7734375 250.421875 C -77.13258209 251.05990051 -76.49172668 251.69792603 -75.83145142 252.35528564 C -73.78812179 254.38744069 -71.73794018 256.41252218 -69.6875 258.4375 C -68.2990214 259.8159453 -66.9109951 261.19484636 -65.5234375 262.57421875 C -62.12501303 265.95061894 -58.72042746 269.32069288 -55.3125 272.6875 C -54.24322266 272.18089844 -54.24322266 272.18089844 -53.15234375 271.6640625 C -39.71507641 265.40660018 -25.2437806 262.83957948 -10.6875 267.25 C -1.76845863 270.84274061 4.86710487 276.35291542 10.99609375 283.671875 C 12.48633646 285.44777624 14.03824576 287.06221496 15.6875 288.6875 C 16.25885178 288.4791301 16.83020355 288.27076019 17.41886902 288.05607605 C 24.90345397 285.32687483 32.38905792 282.60047633 39.875 279.875 C 41.09213684 279.43175385 42.30927368 278.98850769 43.56329346 278.53182983 C 57.73142955 273.37386565 71.90709823 268.23827363 86.10546875 263.1640625 C 87.33019394 262.72618912 88.55491913 262.28831573 89.8167572 261.83717346 C 95.72288808 259.72651133 101.63045366 257.619967 107.53979492 255.51831055 C 109.6697816 254.75836381 111.79974699 253.99835739 113.9296875 253.23828125 C 114.90934982 252.89129181 115.88901215 252.54430237 116.89836121 252.1867981 C 117.78381119 251.87032318 118.66926117 251.55384827 119.58154297 251.2277832 C 120.74168411 250.81530083 120.74168411 250.81530083 121.92526245 250.39448547 C 123.68248282 249.82351035 123.68248282 249.82351035 124.6875 248.6875 C 124.76069621 245.99095146 124.77992537 243.32058542 124.75 240.625 C 124.74323242 239.48708008 124.74323242 239.48708008 124.73632812 238.32617188 C 124.7245068 236.44658129 124.70657078 234.56703101 124.6875 232.6875 C 116.72067105 229.28401828 108.69918156 226.16612996 100.53125 223.28125 C 99.40141693 222.879133 98.27158386 222.47701599 97.10751343 222.06271362 C 93.46851663 220.76812055 89.82801144 219.4778268 86.1875 218.1875 C 83.67450002 217.29417849 81.16160424 216.40057226 78.64892578 215.50634766 C 78.02488169 215.28426195 77.40083759 215.06217625 76.75788307 214.83336067 C 76.13442686 214.61147512 75.51097065 214.38958958 74.86862183 214.16098022 C 72.36249358 213.26906827 69.8562481 212.37748565 67.34988403 211.48623657 C 55.27553706 207.19083746 43.22138092 202.84058601 31.17382812 198.47070312 C 30.49430084 198.22450226 29.81477356 197.97830139 29.11465454 197.72463989 C 27.33771381 197.08070381 25.5611713 196.43566914 23.78466797 195.79052734 C 20.7648649 194.71505278 17.73228107 193.68981924 14.6875 192.6875 Z M 147.6875 220.6875 C 141.73065825 229.45976447 140.87889035 237.15279681 141.6875 247.6875 C 143.87127815 256.93424063 148.84648101 263.11888233 156.8125 268.0625 C 164.67291912 272.64162267 173.73612774 273.09301976 182.58203125 271.00390625 C 192.46555786 267.34502774 198.0831627 261.05068257 202.6875 251.6875 C 205.46216577 243.5484804 204.55686703 233.54186893 200.9375 225.86328125 C 196.601507 218.31594344 190.13247274 212.8846498 181.796875 210.04296875 C 168.50531294 207.8030944 156.72489294 210.40495515 147.6875 220.6875 Z M -101.9173069 255.04621124 C -102.55703123 255.68777916 -103.19675556 256.32934708 -103.85586548 256.99035645 C -104.59064621 257.72238785 -105.32542694 258.45441925 -106.08247375 259.20863342 C -106.88879745 260.02214767 -107.69512115 260.83566193 -108.52587891 261.67382812 C -109.79915794 262.94666908 -109.79915794 262.94666908 -111.09815979 264.245224 C -113.43012653 266.57834814 -115.7575573 268.91583284 -118.08311892 271.25533104 C -120.51257214 273.69725801 -122.94766259 276.13354991 -125.38217163 278.57043457 C -129.99373787 283.18822547 -134.60018079 287.81109251 -139.20482385 292.43578577 C -144.44630029 297.69959058 -149.69343385 302.95774049 -154.9410603 308.21541309 C -165.73786625 319.03314337 -176.52751327 329.85798547 -187.3125 340.6875 C -185.3325 344.1525 -185.3325 344.1525 -183.3125 347.6875 C -162.95364023 342.3236592 -142.66064579 336.75225481 -122.40063477 331.02722168 C -119.58132404 330.23100456 -116.76150643 329.43659142 -113.94166565 328.64225388 C -101.05881237 325.01318778 -88.17979921 321.37136738 -75.3125 317.6875 C -75.2838385 316.63993027 -75.255177 315.59236053 -75.22564697 314.51304626 C -74.90673383 303.57953743 -72.29602601 294.5132971 -67.3125 284.6875 C -71.68377028 280.26566365 -76.06274957 275.85157358 -80.44726562 271.44287109 C -81.93897797 269.94107961 -83.42889328 268.43750097 -84.91699219 266.93212891 C -87.05197648 264.77298034 -89.19326771 262.62026847 -91.3359375 260.46875 C -92.00370209 259.79066284 -92.67146667 259.11257568 -93.35946655 258.41394043 C -93.9799588 257.79329712 -94.60045105 257.17265381 -95.23974609 256.53320312 C -96.05915176 255.70713562 -96.05915176 255.70713562 -96.89511108 254.86437988 C -99.00982595 253.10849951 -99.85005003 253.2959663 -101.9173069 255.04621124 Z M 125.36621094 266.22192383 C 123.96841904 266.73156174 123.96841904 266.73156174 122.54238892 267.25149536 C 120.99773453 267.81729813 120.99773453 267.81729813 119.421875 268.39453125 C 118.34497406 268.78736298 117.26807312 269.1801947 116.15853882 269.58493042 C 113.81430687 270.44006023 111.47031313 271.29584327 109.12652588 272.15219116 C 102.89036109 274.43061324 96.65265133 276.70478769 90.4140625 278.9765625 C 89.77214336 279.21035048 89.13022423 279.44413845 88.468853 279.68501091 C 78.74788062 283.22412834 69.01539971 286.73003648 59.2734375 290.2109375 C 58.04846558 290.64881088 56.82349365 291.08668427 55.56140137 291.53782654 C 49.65408937 293.64835421 43.74530153 295.75465896 37.83496094 297.85668945 C 35.70505428 298.6166324 33.5751702 299.37663862 31.4453125 300.13671875 C 30.46565521 300.48370819 29.48599792 300.83069763 28.47665405 301.1882019 C 27.59119904 301.50467682 26.70574402 301.82115173 25.79345703 302.1472168 C 24.63331589 302.55969917 24.63331589 302.55969917 23.44973755 302.98051453 C 21.69251718 303.55148965 21.69251718 303.55148965 20.6875 304.6875 C 20.59220049 306.64643428 20.50323557 308.60591277 20.44873047 310.56640625 C 19.9762403 326.16171098 15.94951569 338.05942422 4.375 349 C -7.2763267 358.82522439 -20.09051282 360.69306836 -34.83886719 359.92578125 C -47.82458438 358.67488706 -57.47737515 351.38876927 -65.70703125 341.77734375 C -67.71204067 339.16741665 -69.4961347 336.43107298 -71.3125 333.6875 C -92.89969492 339.361119 -114.40051564 345.31465328 -135.87731934 351.39147949 C -139.89235195 352.52697542 -143.90813493 353.65981168 -147.92382812 354.79296875 C -153.77502528 356.44450305 -159.62598234 358.09688245 -165.47631836 359.75146484 C -167.20923378 360.24155533 -167.20923378 360.24155533 -168.97715759 360.74154663 C -172.42358383 361.71900505 -175.86829728 362.70223995 -179.3125 363.6875 C -179.3125 367.9775 -179.3125 372.2675 -179.3125 376.6875 C -171.39164241 380.04969395 -163.44617211 383.1634015 -155.33203125 386.0234375 C -153.65738045 386.6185463 -153.65738045 386.6185463 -151.94889832 387.22567749 C -149.56918549 388.0711688 -147.1889913 388.91530635 -144.80834961 389.75817871 C -138.56364733 391.9695078 -132.32273946 394.19149318 -126.08203125 396.4140625 C -125.45722996 396.63647614 -124.83242867 396.85888977 -124.188694 397.08804321 C -111.87283668 401.47319281 -99.58540541 405.93369432 -87.3125 410.4375 C -86.43002594 410.76127625 -85.54755188 411.08505249 -84.63833618 411.41864014 C -79.86190174 413.17179595 -75.08660846 414.92802049 -70.3125 416.6875 C -67.77541013 414.17744202 -65.43398273 411.64641463 -63.1875 408.875 C -55.79975625 400.45203101 -46.31370478 394.56309612 -35.01855469 393.46435547 C -21.56114562 392.62425498 -11.42202002 394.63273999 0.6875 400.6875 C 44.2475 357.1275 87.8075 313.5675 132.6875 268.6875 C 132.0275 267.3675 131.3675 266.0475 130.6875 264.6875 C 128.83068264 264.6875 127.08979577 265.59171829 125.36621094 266.22192383 Z M -52.3125 292.6875 C -58.26934175 301.45976447 -59.12110965 309.15279681 -58.3125 319.6875 C -56.12872185 328.93424063 -51.15351899 335.11888233 -43.1875 340.0625 C -35.32708088 344.64162267 -26.26387226 345.09301976 -17.41796875 343.00390625 C -7.53444214 339.34502774 -1.9168373 333.05068257 2.6875 323.6875 C 5.46216577 315.5484804 4.55686703 305.54186893 0.9375 297.86328125 C -3.398493 290.31594344 -9.86752726 284.8846498 -18.203125 282.04296875 C -31.49468706 279.8030944 -43.27510706 282.40495515 -52.3125 292.6875 Z M -252.3125 348.6875 C -258.26934175 357.45976447 -259.12110965 365.15279681 -258.3125 375.6875 C -256.12872185 384.93424063 -251.15351899 391.11888233 -243.1875 396.0625 C -235.32708088 400.64162267 -226.26387226 401.09301976 -217.41796875 399.00390625 C -207.53444214 395.34502774 -201.9168373 389.05068257 -197.3125 379.6875 C -194.53783423 371.5484804 -195.44313297 361.54186893 -199.0625 353.86328125 C -203.398493 346.31594344 -209.86752726 340.8846498 -218.203125 338.04296875 C -231.49468706 335.8030944 -243.27510706 338.40495515 -252.3125 348.6875 Z M -52.3125 420.6875 C -58.26934175 429.45976447 -59.12110965 437.15279681 -58.3125 447.6875 C -56.12872185 456.93424063 -51.15351899 463.11888233 -43.1875 468.0625 C -35.32708088 472.64162267 -26.26387226 473.09301976 -17.41796875 471.00390625 C -7.53444214 467.34502774 -1.9168373 461.05068257 2.6875 451.6875 C 5.46216577 443.5484804 4.55686703 433.54186893 0.9375 425.86328125 C -3.398493 418.31594344 -9.86752726 412.8846498 -18.203125 410.04296875 C -31.49468706 407.8030944 -43.27510706 410.40495515 -52.3125 420.6875 Z" stroke-linecap="round" />
</g>
<g transform="matrix(13.02 -13.02 3.14 3.14 532.15 546.97)"  >
<rect style="stroke: rgb(0,0,0); stroke-width: 0; stroke-dasharray: none; stroke-linecap: butt; stroke-dashoffset: 0; stroke-linejoin: miter; stroke-miterlimit: 4; fill: rgb(179,88,88); fill-rule: nonzero; opacity: 0.71;" vector-effect="non-scaling-stroke"  x="-33.0835" y="-33.0835" rx="0" ry="0" width="66.167" height="66.167" />
</g>
</svg>